<svg xmlns="http://www.w3.org/2000/svg" viewBox="0 0 172.9 172.9" enable-background="new 0 0 172.9 172.9"><path fill="#fff" d="M132.8 16.3c0 .3 0 .3.3.7.3 1 .7 2 1 3.3v.3l1 3v.3l1 3.3v.3c1 4.6 2 9 2.3 12.9.3 2 .3 4 .3 5.6h15.9v-46h-136.70000000000002v12.6l15.6 1.3 4 4v136.8l-4 4-15.6 1.7v12.6h136.70000000000002v-46.1h-15.9c0 2-.3 3.7-.3 5.6-.3 4-1.3 8.3-2.3 12.9v.3l-1 3.3v.3l-1 3v.3c-.3 1-.7 2-1 3.3 0 .3 0 .3-.3.7 0 .3-.3.7-.3 1.3h-68.4c3.3-7.6 13.3-36.2.7-66.7h41.2c2 5 4 12.6 4.6 22.6h13.6v-60h-13.3c-.7 9.6-2.7 16.9-4.6 21.9h-39.3c9.3-29.5-.7-55.4-3.3-61.4h68c.4.6.7 1.3 1.1 2z"/></svg>